<?xml version="1.0" encoding="UTF-8"?>
<svg xmlns="http://www.w3.org/2000/svg"
     width="396" height="198"
     viewBox="0 0 396 198"
     role="img" aria-label="LIESMARS logo">
  <path d="M 177.00 159.00 L 177.00 160.00 L 176.00 161.00 L 176.00 162.00 L 177.00 163.00 L 177.00 166.00 L 178.00 167.00 L 178.00 170.00 L 177.00 171.00 L 177.00 174.00 L 176.00 175.00 L 176.00 178.00 L 175.00 179.00 L 175.00 183.00 L 176.00 183.00 L 179.00 180.00 L 179.00 179.00 L 180.00 178.00 L 180.00 177.00 L 181.00 176.00 L 185.00 176.00 L 190.00 181.00 L 191.00 181.00 L 192.00 182.00 L 193.00 182.00 L 197.00 178.00 L 197.00 177.00 L 198.00 176.00 L 201.00 176.00 L 203.00 178.00 L 203.00 180.00 L 204.00 181.00 L 204.00 182.00 L 206.00 184.00 L 208.00 184.00 L 208.00 177.00 L 207.00 176.00 L 207.00 172.00 L 206.00 171.00 L 206.00 164.00 L 207.00 163.00 L 207.00 161.00 L 208.00 160.00 L 208.00 159.00 L 207.00 158.00 L 206.00 158.00 L 205.00 159.00 L 204.00 159.00 L 202.00 161.00 L 202.00 164.00 L 201.00 165.00 L 201.00 168.00 L 200.00 169.00 L 200.00 170.00 L 199.00 171.00 L 199.00 173.00 L 196.00 176.00 L 195.00 176.00 L 194.00 177.00 L 193.00 177.00 L 192.00 176.00 L 191.00 176.00 L 186.00 171.00 L 186.00 170.00 L 185.00 170.00 L 184.00 169.00 L 184.00 168.00 L 183.00 167.00 L 183.00 166.00 L 181.00 164.00 L 181.00 163.00 L 180.00 162.00 L 180.00 158.00 L 178.00 158.00 Z M 243.00 158.00 L 243.00 162.00 L 244.00 163.00 L 244.00 177.00 L 243.00 178.00 L 244.00 179.00 L 244.00 182.00 L 245.00 183.00 L 246.00 182.00 L 247.00 182.00 L 249.00 180.00 L 249.00 167.00 L 248.00 166.00 L 248.00 163.00 L 250.00 161.00 L 253.00 161.00 L 256.00 164.00 L 256.00 167.00 L 255.00 168.00 L 255.00 169.00 L 253.00 171.00 L 253.00 174.00 L 255.00 176.00 L 255.00 178.00 L 256.00 179.00 L 256.00 180.00 L 257.00 181.00 L 257.00 182.00 L 259.00 184.00 L 260.00 183.00 L 261.00 183.00 L 262.00 182.00 L 262.00 178.00 L 260.00 176.00 L 260.00 175.00 L 258.00 173.00 L 258.00 169.00 L 260.00 167.00 L 261.00 167.00 L 261.00 166.00 L 262.00 165.00 L 262.00 162.00 L 261.00 161.00 L 261.00 160.00 L 258.00 157.00 L 245.00 157.00 L 244.00 158.00 Z M 226.00 157.00 L 225.00 158.00 L 225.00 160.00 L 224.00 161.00 L 222.00 161.00 L 222.00 165.00 L 221.00 166.00 L 221.00 167.00 L 219.00 169.00 L 219.00 170.00 L 218.00 171.00 L 218.00 173.00 L 215.00 176.00 L 215.00 181.00 L 216.00 181.00 L 221.00 176.00 L 230.00 176.00 L 232.00 178.00 L 232.00 180.00 L 235.00 183.00 L 237.00 183.00 L 238.00 182.00 L 238.00 179.00 L 236.00 177.00 L 236.00 175.00 L 235.00 174.00 L 235.00 173.00 L 233.00 171.00 L 233.00 170.00 L 232.00 169.00 L 232.00 167.00 L 231.00 166.00 L 231.00 165.00 L 230.00 164.00 L 230.00 161.00 L 229.00 160.00 L 229.00 159.00 L 227.00 157.00 Z M 225.00 165.00 L 226.00 165.00 L 228.00 167.00 L 228.00 173.00 L 227.00 174.00 L 224.00 174.00 L 222.00 172.00 L 222.00 169.00 L 223.00 168.00 L 223.00 167.00 Z M 169.00 158.00 L 168.00 158.00 L 167.00 157.00 L 162.00 157.00 L 161.00 158.00 L 160.00 158.00 L 159.00 159.00 L 158.00 159.00 L 157.00 160.00 L 156.00 160.00 L 155.00 161.00 L 154.00 161.00 L 153.00 162.00 L 153.00 164.00 L 152.00 165.00 L 152.00 168.00 L 155.00 171.00 L 158.00 171.00 L 159.00 172.00 L 160.00 172.00 L 162.00 174.00 L 164.00 174.00 L 166.00 176.00 L 166.00 178.00 L 164.00 180.00 L 163.00 180.00 L 162.00 181.00 L 161.00 181.00 L 160.00 180.00 L 157.00 180.00 L 156.00 179.00 L 156.00 178.00 L 155.00 177.00 L 152.00 177.00 L 151.00 178.00 L 150.00 178.00 L 150.00 182.00 L 152.00 184.00 L 163.00 184.00 L 164.00 183.00 L 165.00 183.00 L 166.00 182.00 L 166.00 181.00 L 170.00 177.00 L 170.00 175.00 L 171.00 174.00 L 171.00 173.00 L 170.00 172.00 L 170.00 171.00 L 168.00 169.00 L 167.00 170.00 L 166.00 170.00 L 165.00 169.00 L 162.00 169.00 L 160.00 167.00 L 159.00 167.00 L 156.00 164.00 L 156.00 163.00 L 157.00 162.00 L 157.00 161.00 L 159.00 159.00 L 160.00 159.00 L 161.00 160.00 L 163.00 160.00 L 164.00 161.00 L 164.00 162.00 L 165.00 162.00 L 166.00 163.00 L 169.00 163.00 L 170.00 162.00 L 170.00 159.00 Z M 92.00 157.00 L 91.00 158.00 L 90.00 158.00 L 89.00 159.00 L 89.00 183.00 L 90.00 184.00 L 94.00 184.00 L 95.00 183.00 L 96.00 183.00 L 97.00 184.00 L 99.00 184.00 L 100.00 183.00 L 102.00 183.00 L 102.00 180.00 L 101.00 180.00 L 100.00 179.00 L 97.00 179.00 L 96.00 178.00 L 95.00 179.00 L 94.00 179.00 L 93.00 178.00 L 93.00 158.00 Z M 286.00 157.00 L 285.00 157.00 L 284.00 156.00 L 279.00 156.00 L 278.00 157.00 L 277.00 157.00 L 276.00 158.00 L 275.00 158.00 L 274.00 159.00 L 273.00 159.00 L 272.00 160.00 L 271.00 160.00 L 270.00 161.00 L 270.00 162.00 L 269.00 163.00 L 269.00 167.00 L 270.00 167.00 L 271.00 168.00 L 271.00 169.00 L 272.00 169.00 L 273.00 170.00 L 276.00 170.00 L 277.00 171.00 L 279.00 171.00 L 280.00 172.00 L 282.00 172.00 L 283.00 173.00 L 283.00 177.00 L 282.00 178.00 L 281.00 178.00 L 280.00 179.00 L 275.00 179.00 L 274.00 178.00 L 274.00 177.00 L 269.00 177.00 L 267.00 179.00 L 267.00 181.00 L 269.00 183.00 L 272.00 183.00 L 273.00 184.00 L 277.00 184.00 L 278.00 183.00 L 279.00 183.00 L 280.00 182.00 L 282.00 182.00 L 283.00 181.00 L 283.00 180.00 L 286.00 177.00 L 287.00 177.00 L 287.00 175.00 L 288.00 174.00 L 288.00 171.00 L 286.00 169.00 L 284.00 169.00 L 283.00 168.00 L 281.00 168.00 L 280.00 167.00 L 279.00 167.00 L 278.00 166.00 L 277.00 166.00 L 276.00 165.00 L 276.00 163.00 L 275.00 163.00 L 274.00 162.00 L 274.00 160.00 L 275.00 159.00 L 276.00 159.00 L 277.00 158.00 L 280.00 158.00 L 283.00 161.00 L 285.00 161.00 L 286.00 160.00 L 287.00 160.00 L 287.00 158.00 Z M 113.00 156.00 L 112.00 157.00 L 111.00 157.00 L 111.00 180.00 L 112.00 181.00 L 115.00 181.00 L 116.00 180.00 L 116.00 157.00 L 115.00 156.00 Z M 144.00 154.00 L 143.00 155.00 L 138.00 155.00 L 137.00 156.00 L 136.00 156.00 L 132.00 160.00 L 131.00 160.00 L 130.00 161.00 L 129.00 161.00 L 128.00 162.00 L 127.00 162.00 L 127.00 163.00 L 126.00 164.00 L 126.00 166.00 L 125.00 167.00 L 125.00 175.00 L 126.00 176.00 L 126.00 177.00 L 127.00 178.00 L 127.00 179.00 L 128.00 179.00 L 130.00 181.00 L 131.00 181.00 L 132.00 182.00 L 133.00 182.00 L 134.00 183.00 L 136.00 183.00 L 137.00 184.00 L 138.00 184.00 L 139.00 183.00 L 140.00 183.00 L 142.00 181.00 L 142.00 180.00 L 141.00 180.00 L 140.00 179.00 L 136.00 179.00 L 135.00 178.00 L 134.00 178.00 L 129.00 173.00 L 129.00 171.00 L 130.00 170.00 L 142.00 170.00 L 143.00 169.00 L 143.00 168.00 L 131.00 168.00 L 130.00 167.00 L 130.00 166.00 L 131.00 165.00 L 131.00 162.00 L 132.00 161.00 L 132.00 160.00 L 133.00 159.00 L 138.00 159.00 L 139.00 160.00 L 143.00 160.00 L 144.00 159.00 L 145.00 159.00 L 145.00 156.00 L 144.00 155.00 Z M 89.00 103.00 L 109.00 102.00 L 110.00 101.00 L 133.00 101.00 L 134.00 102.00 L 138.00 102.00 L 139.00 103.00 L 146.00 104.00 L 152.00 107.00 L 157.00 108.00 L 162.00 111.00 L 169.00 113.00 L 173.00 116.00 L 188.00 121.00 L 191.00 123.00 L 195.00 123.00 L 201.00 125.00 L 207.00 125.00 L 208.00 126.00 L 209.00 125.00 L 221.00 125.00 L 222.00 124.00 L 226.00 124.00 L 239.00 118.00 L 251.00 108.00 L 269.00 83.00 L 271.00 78.00 L 274.00 75.00 L 275.00 72.00 L 280.00 65.00 L 281.00 61.00 L 274.00 61.00 L 273.00 62.00 L 255.00 66.00 L 251.00 73.00 L 251.00 75.00 L 249.00 77.00 L 249.00 79.00 L 246.00 82.00 L 246.00 84.00 L 244.00 85.00 L 242.00 89.00 L 235.00 97.00 L 231.00 99.00 L 231.00 100.00 L 227.00 103.00 L 221.00 106.00 L 215.00 108.00 L 204.00 109.00 L 203.00 108.00 L 193.00 107.00 L 188.00 105.00 L 186.00 103.00 L 184.00 103.00 L 177.00 98.00 L 168.00 89.00 L 160.00 74.00 L 160.00 70.00 L 159.00 69.00 L 160.00 51.00 L 158.00 49.00 L 146.00 45.00 L 130.00 45.00 L 129.00 46.00 L 126.00 46.00 L 123.00 49.00 L 122.00 52.00 L 112.00 65.00 L 112.00 67.00 L 108.00 71.00 L 107.00 74.00 L 97.00 89.00 L 93.00 92.00 L 94.00 94.00 L 92.00 95.00 L 92.00 97.00 L 90.00 98.00 Z M 239.00 36.00 L 234.00 36.00 L 194.00 49.00 L 186.00 49.00 L 166.00 55.00 L 166.00 59.00 L 173.00 59.00 L 171.00 62.00 L 166.00 63.00 L 166.00 68.00 L 179.00 64.00 L 184.00 65.00 L 183.00 67.00 L 168.00 72.00 L 168.00 75.00 L 173.00 76.00 L 170.00 78.00 L 170.00 80.00 L 174.00 83.00 L 176.00 88.00 L 180.00 89.00 L 181.00 92.00 L 185.00 93.00 L 190.00 98.00 L 196.00 97.00 L 197.00 100.00 L 208.00 101.00 L 227.00 95.00 L 230.00 92.00 L 223.00 93.00 L 219.00 90.00 L 239.00 84.00 L 240.00 82.00 L 230.00 83.00 L 213.00 89.00 L 209.00 86.00 L 225.00 80.00 L 240.00 77.00 L 244.00 75.00 L 244.00 73.00 L 233.00 76.00 L 230.00 75.00 L 229.00 77.00 L 204.00 84.00 L 202.00 81.00 L 227.00 72.00 L 239.00 70.00 L 246.00 67.00 L 246.00 65.00 L 241.00 65.00 L 209.00 76.00 L 205.00 75.00 L 201.00 78.00 L 197.00 78.00 L 196.00 76.00 L 207.00 71.00 L 242.00 62.00 L 246.00 58.00 L 238.00 59.00 L 202.00 71.00 L 196.00 71.00 L 195.00 69.00 L 203.00 65.00 L 243.00 54.00 L 245.00 51.00 L 227.00 56.00 L 225.00 55.00 L 218.00 59.00 L 197.00 65.00 L 185.00 66.00 L 184.00 64.00 L 198.00 58.00 L 217.00 53.00 L 219.00 54.00 L 222.00 51.00 L 239.00 47.00 L 243.00 44.00 L 242.00 43.00 L 196.00 57.00 L 187.00 57.00 L 180.00 60.00 L 177.00 60.00 L 176.00 58.00 L 181.00 55.00 L 236.00 39.00 Z M 204.00 95.00 L 205.00 94.00 L 206.00 94.00 L 207.00 95.00 L 207.00 96.00 L 206.00 97.00 L 205.00 97.00 L 204.00 96.00 Z M 213.00 92.00 L 214.00 91.00 L 215.00 91.00 L 216.00 92.00 L 216.00 93.00 L 215.00 94.00 L 214.00 94.00 L 213.00 93.00 Z M 195.00 83.00 L 196.00 82.00 L 197.00 82.00 L 198.00 83.00 L 198.00 84.00 L 197.00 85.00 L 196.00 85.00 L 195.00 84.00 Z M 198.00 82.00 L 199.00 81.00 L 201.00 81.00 L 202.00 82.00 L 202.00 83.00 L 201.00 84.00 L 199.00 84.00 L 198.00 83.00 Z M 180.00 80.00 L 181.00 79.00 L 182.00 79.00 L 183.00 80.00 L 183.00 81.00 L 182.00 82.00 L 181.00 82.00 L 180.00 81.00 Z M 183.00 79.00 L 184.00 78.00 L 185.00 78.00 L 186.00 79.00 L 186.00 80.00 L 185.00 81.00 L 184.00 81.00 L 183.00 80.00 Z M 189.00 70.00 L 190.00 69.00 L 191.00 69.00 L 192.00 70.00 L 192.00 71.00 L 191.00 72.00 L 190.00 72.00 L 189.00 71.00 Z M 233.00 30.00 L 231.00 30.00 L 230.00 29.00 L 229.00 30.00 L 228.00 30.00 L 227.00 29.00 L 227.00 28.00 L 227.00 30.00 L 224.00 32.00 L 221.00 32.00 L 220.00 33.00 L 217.00 33.00 L 216.00 34.00 L 214.00 34.00 L 213.00 35.00 L 210.00 35.00 L 209.00 36.00 L 207.00 36.00 L 206.00 37.00 L 203.00 37.00 L 200.00 39.00 L 196.00 39.00 L 193.00 41.00 L 192.00 41.00 L 191.00 40.00 L 188.00 40.00 L 187.00 41.00 L 184.00 41.00 L 183.00 42.00 L 181.00 42.00 L 180.00 43.00 L 177.00 43.00 L 176.00 42.00 L 176.00 41.00 L 177.00 40.00 L 179.00 40.00 L 182.00 38.00 L 184.00 38.00 L 185.00 37.00 L 187.00 37.00 L 188.00 36.00 L 190.00 36.00 L 191.00 35.00 L 193.00 35.00 L 194.00 34.00 L 197.00 34.00 L 198.00 33.00 L 200.00 33.00 L 201.00 32.00 L 205.00 32.00 L 206.00 31.00 L 207.00 31.00 L 208.00 32.00 L 208.00 31.00 L 209.00 30.00 L 211.00 30.00 L 212.00 29.00 L 214.00 29.00 L 215.00 28.00 L 217.00 28.00 L 220.00 26.00 L 224.00 26.00 L 224.00 24.00 L 219.00 24.00 L 218.00 25.00 L 216.00 25.00 L 215.00 26.00 L 212.00 26.00 L 211.00 27.00 L 209.00 27.00 L 208.00 28.00 L 206.00 28.00 L 205.00 29.00 L 202.00 29.00 L 201.00 30.00 L 198.00 30.00 L 197.00 31.00 L 195.00 31.00 L 194.00 32.00 L 193.00 32.00 L 192.00 31.00 L 190.00 31.00 L 189.00 32.00 L 186.00 32.00 L 185.00 33.00 L 183.00 33.00 L 182.00 34.00 L 177.00 34.00 L 176.00 35.00 L 173.00 36.00 L 171.00 38.00 L 171.00 40.00 L 170.00 41.00 L 172.00 41.00 L 174.00 43.00 L 174.00 44.00 L 173.00 45.00 L 171.00 45.00 L 170.00 44.00 L 170.00 45.00 L 167.00 47.00 L 166.00 50.00 L 172.00 50.00 L 173.00 49.00 L 175.00 49.00 L 176.00 48.00 L 179.00 48.00 L 180.00 47.00 L 183.00 47.00 L 186.00 45.00 L 190.00 45.00 L 191.00 44.00 L 192.00 44.00 L 194.00 42.00 L 199.00 42.00 L 200.00 41.00 L 202.00 41.00 L 203.00 40.00 L 207.00 40.00 L 209.00 38.00 L 211.00 38.00 L 212.00 37.00 L 215.00 37.00 L 218.00 35.00 L 222.00 35.00 L 225.00 33.00 L 227.00 33.00 L 228.00 32.00 L 231.00 32.00 L 232.00 31.00 L 233.00 31.00 Z M 212.00 20.00 L 209.00 20.00 L 208.00 19.00 L 207.00 19.00 L 206.00 20.00 L 204.00 20.00 L 203.00 21.00 L 200.00 21.00 L 199.00 22.00 L 193.00 22.00 L 192.00 23.00 L 190.00 23.00 L 189.00 24.00 L 187.00 24.00 L 186.00 25.00 L 184.00 25.00 L 182.00 27.00 L 181.00 27.00 L 178.00 30.00 L 184.00 30.00 L 185.00 29.00 L 186.00 29.00 L 187.00 28.00 L 189.00 28.00 L 190.00 27.00 L 192.00 27.00 L 193.00 26.00 L 197.00 26.00 L 198.00 25.00 L 199.00 25.00 L 200.00 24.00 L 202.00 24.00 L 203.00 23.00 L 206.00 23.00 L 207.00 22.00 L 208.00 22.00 L 209.00 21.00 L 211.00 21.00 Z"
        fill="#374896"
        fill-rule="evenodd"
        clip-rule="evenodd"/>
</svg>
