<?xml version="1.0" encoding="UTF-8"?>
<svg xmlns="http://www.w3.org/2000/svg" id="图层_1" data-name="图层 1" viewBox="100 100 310 125">
  <title>wuhan-university</title>
  <path d="M157.94,117a44.56,44.56,0,1,0,44.56,44.55A44.56,44.56,0,0,0,157.94,117Z" style="fill:#115740"></path>
  <circle cx="157.94" cy="161.58" r="29.58" style="fill:#fff"></circle>
  <path d="M150.19,186.77v-1.61l0-.79-.07-.06-1.2.22v.26H149a1.27,1.27,0,0,1,.52,0c.1.06.12.26.12.28v1.67c0,.3,0,.56,0,.86h-.77V188H151v-.32h-.76C150.2,187.33,150.19,187.07,150.19,186.77Z" style="fill:#115740"></path>
  <path d="M155.67,186.05a.31.31,0,0,1-.07-.09c0-.05.07-.12.08-.12a.92.92,0,0,0,.5-.76c0-.48-.36-.84-1-.84a1,1,0,0,0-1.07.94,1.05,1.05,0,0,0,.57.92.07.07,0,0,1,0,.08.28.28,0,0,1-.06.08.94.94,0,0,0-.66.86c0,.54.43.86,1.14.86s1.2-.39,1.2-1A1.07,1.07,0,0,0,155.67,186.05Zm-1.09-1a.58.58,0,1,1,1.15.08.93.93,0,0,1-.4.78C154.73,185.6,154.58,185.32,154.58,185Zm.59,2.77a.66.66,0,0,1-.68-.74.87.87,0,0,1,.48-.8c.65.31.85.54.85.87A.61.61,0,0,1,155.17,187.79Z" style="fill:#115740"></path>
  <path d="M160.5,184.24a1.13,1.13,0,0,0-1.21,1.15,1,1,0,0,0,1.09,1.09,1.21,1.21,0,0,0,.48-.09.19.19,0,0,1,.13,0s0,.13,0,.18v0a2,2,0,0,1-1.43,1.25l0,.16a2.35,2.35,0,0,0,2.09-2.29C161.71,184.81,161.26,184.24,160.5,184.24Zm.64,1.66a.27.27,0,0,1,0,.09,1.06,1.06,0,0,1-.09.11.84.84,0,0,1-.45.12c-.43,0-.74-.3-.74-.9s.3-.87.65-.87.66.37.66,1.28C161.15,185.79,161.14,185.84,161.14,185.9Z" style="fill:#115740"></path>
  <path d="M166.1,186c.55-.15.82-.48.82-.9s-.4-.88-1.08-.88c-.53,0-1.17.37-1.07.75a.27.27,0,0,0,.27.17c.17,0,.26-.09.31-.32l0-.14h0a.65.65,0,0,1,.14-.16.46.46,0,0,1,.3-.08.6.6,0,0,1,.55.67.73.73,0,0,1-.8.79h-.21v.22h.25a.82.82,0,0,1,.11,1.64h0a.82.82,0,0,1-.27-.05.44.44,0,0,1-.18-.2l0-.16c-.07-.27-.14-.42-.32-.43a.24.24,0,0,0-.27.24c.05.58.49.8,1.1.8.77,0,1.27-.44,1.27-1S166.75,186.12,166.1,186Z" style="fill:#115740"></path>
  <path d="M175.56,190c-.21-.11-.45-.2-.53-.14a.39.39,0,0,0-.19.18c-.09.13-.21.44-.34.26s-.25-.46-.36-.53a.7.7,0,0,0-.4-.07c-.12,0-.24,0-.24.08a2.2,2.2,0,0,0,.12.62c.07.19.16.4.08.51s-.5.14-.55.21-.17.21-.06.29.33.19.33.29-.07.35,0,.46.29.21.39,0,.29-.18.27,0a.58.58,0,0,1-.22.48c-.2.18-.53.26-.31.4s.39.19.41.36a.41.41,0,0,1,0,.3c0,.06-.06.12.07.16a.42.42,0,0,0,.28,0c.08,0,.2-.1.23,0s.06.19,0,.23a1.11,1.11,0,0,0-.29.37,3.89,3.89,0,0,1-.64,1.08c-.49.51-.51.59-.67.64s-.15,0-.18,0a.15.15,0,0,0,0,.17s.16.37.45.36a1,1,0,0,0,.78-.36c.18-.26,1.09-2.7,1.22-2.86s.37-.18.39-.1a.68.68,0,0,1-.1.51c-.13.24-.28.38-.28.44a2.46,2.46,0,0,0,.16.38c.05.15,0,.22.11.32a1.77,1.77,0,0,1,.19.22,4.92,4.92,0,0,1-.31.7,1.64,1.64,0,0,1-.35.55c-.1.09-.22.14-.21.21a.25.25,0,0,0,.24.19.4.4,0,0,0,.34-.09c.07-.08.15-.35.3-.62a3,3,0,0,1,.24-.42.3.3,0,0,1,.34.15.49.49,0,0,1,0,.52c-.12.2-.35.32-.36.36s0,.24.35.24a1,1,0,0,0,.53-.16c.13-.07.28,0,.37-.13a.7.7,0,0,0,0-.71,2.22,2.22,0,0,0-.34-.57c-.11-.14-.37-.44-.21-.62a.93.93,0,0,1,.3-.25c.08,0,.25-.22.2-.35s-.22-.26-.31-.2-.17.32-.29.44-.28.29-.45.16a1,1,0,0,1-.31-.34c0-.07.14-.26.25-.54a2.42,2.42,0,0,0,.21-1.24c-.11-.31-.27-.34-.34-.31s-.4.25-.51.11-.1-.3,0-.61a1.7,1.7,0,0,0,.18-.62.33.33,0,0,1,.09-.29c.11-.1.34-.21.26-.4A.78.78,0,0,0,175.56,190Zm-.74,1.89c0,.1-.09.24-.2.27s-.18,0-.2-.07a.44.44,0,0,1,.19-.38C174.73,191.59,174.85,191.75,174.82,191.84Zm.31-.93a.27.27,0,0,1-.13.16.18.18,0,0,1-.16,0s-.05,0,0-.11a.46.46,0,0,1,.19-.14S175.14,190.85,175.13,190.91Z" style="fill:#fff"></path>
  <path d="M172.52,194.81s0-.07,0-.11a.42.42,0,0,0,0-.53c-.2-.23-.47-.46-.49-.52s0-.14.12-.23.24-.15.22-.25-.07-.14,0-.2.11-.15.4-.06a1.15,1.15,0,0,1,.51.37c.05.06.1.15,0,.36s-.23.44-.21.55.11.17.12.23a1,1,0,0,1-.08.54.33.33,0,0,1-.4,0A.61.61,0,0,1,172.52,194.81Z" style="fill:#fff"></path>
  <path d="M144.91,191c.14-.25.18-.29.12-.42a1.48,1.48,0,0,0-.35-.45.63.63,0,0,0-.34-.18.12.12,0,0,0-.16.09,4.91,4.91,0,0,1-.19.77,19,19,0,0,1-.79,1.84.49.49,0,0,1-.22.26c-.08.05-1.69,0-2.52-.08a4.94,4.94,0,0,1-1.33-.16c-.31-.09-.32-.12-.4-.14s-.13.13-.13.13l.06.18c.06.11.27.3.33.41a1.19,1.19,0,0,0,.19.29s.18-.06.49-.1a2.84,2.84,0,0,1,.9,0c.16.05.17.1.16.15s-.06.06-.28.36a1.37,1.37,0,0,0-.26.75c0,.08.13.11.15.12a.79.79,0,0,0,.3,0,3.33,3.33,0,0,0,.54-.32c.08,0,.27,0,.33,0s.12,0,.12.08a1.62,1.62,0,0,1-.29.55c-.16.17-.7.23-1.89.36a4,4,0,0,1-2-.25.18.18,0,0,1-.1-.11.29.29,0,0,0-.1,0s-.11.15,0,.41a.8.8,0,0,0,.38.48,8.44,8.44,0,0,0,1.93.1,16.4,16.4,0,0,0,2.35-.56.57.57,0,0,1,.22,0,4.44,4.44,0,0,1,.13.82c0,.4,0,1.32,0,1.36s.14.1.17.12a.3.3,0,0,0,.2,0,1.8,1.8,0,0,0,.35-.24.42.42,0,0,0,.14-.16c0-.06.15-.37.4-.89s.56-1,.57-1.06,0-.09,0-.21,0-.2-.07-.26-.07,0-.07,0,0,0-.11.26a6.66,6.66,0,0,1-.5.81c-.07.09-.21.14-.25,0a2.87,2.87,0,0,1,0-.91,7.92,7.92,0,0,1,.39-1.46c.09-.21.23-.14.31-.13a2.12,2.12,0,0,0,.5,0c.1-.05.15-.09.17-.27s-.18-.19-.25-.19-.28,0-.32-.14,0-.11.28-.7A13,13,0,0,1,144.91,191Zm-3,2.71a.89.89,0,0,1-.3.44c-.07,0-.13,0-.35-.15s-.28-.44-.23-.48a.39.39,0,0,1,.3-.07,1.39,1.39,0,0,1,.46.09C142,193.56,142,193.58,142,193.69Zm.69.35a1.47,1.47,0,0,1-.26.45s-.12-.1-.14-.22a.71.71,0,0,1,0-.39.63.63,0,0,1,.23-.36.2.2,0,0,1,.23,0A.66.66,0,0,1,142.64,194Z" style="fill:#fff"></path>
  <path d="M138.62,194.49c0-.08.18-.07.26-.08a.85.85,0,0,0,.41-.15c.18-.09.24-.26.3-.23a1.77,1.77,0,0,1,0,.63c0,.28-.28.25-.35.26a3,3,0,0,1-.73,0C138.49,194.81,138.6,194.56,138.62,194.49Z" style="fill:#fff"></path>
  <path d="M141.25,191.58s0,0,.06-.05.1.06.34.12a3.38,3.38,0,0,0,.82,0,.84.84,0,0,1,.56.05c.18.11.09.51,0,.62s-.21.09-.45.09-.57.06-.68.06a.88.88,0,0,1-.51-.37A.76.76,0,0,1,141.25,191.58Z" style="fill:#fff"></path>
  <path d="M145.89,193.13a.76.76,0,0,1-.85.42c-.13,0-.17-.06-.17-.08s.23-.39.34-.64a2,2,0,0,0,0-.72,2.62,2.62,0,0,1,.33.15A.75.75,0,0,1,145.89,193.13Z" style="fill:#fff"></path>
  <path d="M152,197.35a4,4,0,0,0-.46,1.2,17.5,17.5,0,0,0-.45,1.85c-.08.33-.17.57-.44.53s-.5-.49-.53-.64.06-.26.15-.39a6.5,6.5,0,0,0,.38-1c.12-.38.12-1,.23-1.29a3.25,3.25,0,0,0,.28-.79,2.71,2.71,0,0,1,.15-.77.18.18,0,0,1,.13-.06c.06,0,.14,0,.24.17a1.41,1.41,0,0,1,.21.4c.06.13.1.22.19.23a.24.24,0,0,0,.17-.07s.07,0,.07.15S152.15,197.16,152,197.35Z" style="fill:#fff"></path>
  <path d="M151.5,193.59c0-.06.12-.2.2-.18s.2.32.3.59a1.1,1.1,0,0,1,0,.81c-.08.2-.3.35-.41.52s-.12.27-.2.32-.14.08-.16,0a4.25,4.25,0,0,1,0-.88,3.11,3.11,0,0,0,.16-.67A2.48,2.48,0,0,1,151.5,193.59Z" style="fill:#fff"></path>
  <path d="M155.34,200.68c-.11,0-.45-.18-.55-.21s-.17-.05-.15-.09.05-.09.15-.16a.64.64,0,0,0,.21-.29c0-.09-.14-.35-.16-.45a.74.74,0,0,1,0-.26s0,0,.1,0,.16.06.3.19.22.42.33.61.15.16.14.3A.71.71,0,0,1,155.34,200.68Z" style="fill:#fff"></path>
  <path d="M156.09,194.27a.67.67,0,0,0,.21-.56.53.53,0,0,0-.26-.34.28.28,0,0,0-.34.1c0,.07,0,.12,0,.37a.48.48,0,0,1-.36.44c-.23.09-.37-.33-.43-.39s-.09.07-.1.18,0,.6-.06.63-.26-.33-.36-.4-.1,0-.16.07-.07.2-.09.4,0,.25-.25.46a4.07,4.07,0,0,1-1.13.45s0,0,0,0,0,.09.12.2a.72.72,0,0,0,.4.23c.13,0,.22,0,.27.18a2.28,2.28,0,0,1,0,.69c0,.18-.18.33-.4.49a.69.69,0,0,0-.31.52c0,.15.36.32.54.29a1.08,1.08,0,0,0,.41-.23.14.14,0,0,1,.15,0,.44.44,0,0,1,.13.31c0,.17-.26.35-.38.41a.59.59,0,0,1-.32,0c-.07,0-.09,0-.1.05a.24.24,0,0,0,.1.18c.07.07.34,0,.38.06a.37.37,0,0,1,.09.31c0,.19-.38.46-.51.63s.1.17.22.12a2.19,2.19,0,0,0,.65-.47,2.12,2.12,0,0,0,.37-.7,2.05,2.05,0,0,0,.43,0,1.48,1.48,0,0,0,.68-.3,1.88,1.88,0,0,0,.46-.45c0-.06,0-.15-.23-.23a1.49,1.49,0,0,0-.55-.11c-.14,0-.11.19-.14.3s-.12.22-.34.29-.15-.18-.08-.25.21-.24.46-.55.23-.49.17-.62-.13-.38-.08-.44.08-.05.32-.2.24-.26.15-.48-.53-.27-.62-.36,0-.3.07-.5S155.88,194.5,156.09,194.27Zm-2.35,1.62a.35.35,0,0,1,.28-.1c.15,0,.25,0,.29.13s0,.19-.24.2S153.69,196,153.74,195.89Zm.11,1.8c-.21,0-.22-.07-.23-.11a.22.22,0,0,1,.16-.19.36.36,0,0,1,.26,0,1.8,1.8,0,0,1,.17.14A.56.56,0,0,1,153.85,197.69Zm.52-.63a.36.36,0,0,1-.32,0A.11.11,0,0,1,154,197a.26.26,0,0,1,.35-.14C154.46,196.89,154.45,197,154.37,197.06Z" style="fill:#fff"></path>
  <path d="M166.45,198.28c-.32.07-.52-.08-.54-.16a.36.36,0,0,0-.13-.26,1.45,1.45,0,0,0-.51-.1c-.12,0-.14.12-.17.23a7,7,0,0,1-.63,1,.37.37,0,0,1-.56,0c-.13-.14,0-.33.26-.66a2.48,2.48,0,0,0,.54-.93c0-.11,0-.25-.07-.26s-.07,0-.15,0a2.12,2.12,0,0,0-.39.32.94.94,0,0,1-.29.23.27.27,0,0,1-.25,0,.89.89,0,0,1-.21-.22c0-.08,0-.18.05-.32s.28-.12.31-.12a.92.92,0,0,0,.4-.11,1.14,1.14,0,0,0,.37-.2.79.79,0,0,0,.19-.36,1.65,1.65,0,0,0-.11-.79.94.94,0,0,0-.25-.35s0-.08,0-.2a1.84,1.84,0,0,0,0-.28c0-.07.1-.13.16-.14a.79.79,0,0,1,.28.13c.05,0,.12,0,.19,0s.13,0,.26.1.15.15.15.22a4.34,4.34,0,0,0-.16.47c0,.09.12.39.17.4s.06-.09.12-.15a.43.43,0,0,1,.42-.08c.19.05.26.17.26.25s-.05.19-.33.43-.42.36-.48.52a.27.27,0,0,0,.12.35c.13.08.52,0,.68,0a.72.72,0,0,1,.59.2.65.65,0,0,1,.22.52C166.91,198.07,166.77,198.2,166.45,198.28Z" style="fill:#fff"></path>
  <path d="M189.17,178.18V165.74c3.24-1.57,3.55-7.8,3.77-8.49-.29.17-2.6,2.68-5.49,2.71h-59c-2.89,0-5.2-2.54-5.49-2.71.22.69.53,6.92,3.76,8.49v12.44h-4.46l5.63,5.65H188l5.64-5.65Z" style="fill:#fff"></path>
  <path d="M157.94,204.24a42.67,42.67,0,1,1,42.67-42.67A42.71,42.71,0,0,1,157.94,204.24Zm0-84.13a41.47,41.47,0,1,0,41.47,41.46A41.51,41.51,0,0,0,157.94,120.11Z" style="fill:#fff"></path>
  <path d="M177.65,158.73c.3-.35.6-.73.88-1.1H137.36c.28.37.58.75.89,1.1Z" style="fill:#002554"></path>
  <path d="M157,141.27h.29a4.38,4.38,0,0,0,0,3.33h0a.13.13,0,0,0-.13.13h0a.13.13,0,0,0,.13.13h1.27a.13.13,0,0,0,.13-.13h0a.13.13,0,0,0-.13-.13h0a4.33,4.33,0,0,0,0-3.33h.29a.18.18,0,0,0,.17-.17.17.17,0,0,0-.17-.17h0v0a.53.53,0,0,0-.4-.51.36.36,0,0,0,.12-.27V140a.13.13,0,0,0,.11-.13.13.13,0,0,0-.13-.13h-.13v0a.29.29,0,0,0-.26-.29h-.49a.29.29,0,0,0-.26.29v0h-.13a.13.13,0,0,0-.13.13.13.13,0,0,0,.11.13v.12a.36.36,0,0,0,.12.27.53.53,0,0,0-.4.51v0h0a.17.17,0,0,0-.17.17A.18.18,0,0,0,157,141.27Z" style="fill:#002554"></path>
  <rect x="156.56" y="154.43" width="2.78" height="0.99" style="fill:#002554"></rect>
  <polygon points="148.56 154.7 148.56 155.79 146.49 156.81 146.49 155.71 148.56 154.7" style="fill:#002554"></polygon>
  <polygon points="167.32 154.7 167.32 155.79 169.4 156.81 169.4 155.71 167.32 154.7" style="fill:#002554"></polygon>
  <rect x="160.12" y="154.43" width="2.78" height="0.99" style="fill:#002554"></rect>
  <rect x="163.68" y="154.43" width="2.78" height="0.99" style="fill:#002554"></rect>
  <rect x="149.42" y="154.43" width="2.78" height="0.99" style="fill:#002554"></rect>
  <rect x="152.99" y="154.43" width="2.78" height="0.99" style="fill:#002554"></rect>
  <polygon points="128.39 182.7 187.5 182.7 188.91 181.28 126.98 181.28 128.39 182.7" style="fill:#002554"></polygon>
  <polygon points="126.59 180.9 189.3 180.9 190.71 179.49 125.18 179.49 126.59 180.9" style="fill:#002554"></polygon>
  <polygon points="143.81 177.33 172.09 177.33 171.86 176.67 144.03 176.67 143.81 177.33" style="fill:#002554"></polygon>
  <polygon points="143.39 178.58 172.5 178.58 172.28 177.91 143.61 177.91 143.39 178.58" style="fill:#002554"></polygon>
  <polygon points="144.45 175.42 144.22 176.08 171.67 176.08 171.44 175.42 144.45 175.42" style="fill:#002554"></polygon>
  <path d="M143.74,160.21v-.64h-1.51v1.06A5.14,5.14,0,0,0,143.74,160.21Z" style="fill:#002554"></path>
  <path d="M140,160.34a2.38,2.38,0,0,0,1.21.34v-1.11h-1.5v.57Z" style="fill:#002554"></path>
  <path d="M175.9,160.34a2,2,0,0,0,.25-.18v-.59h-1.5v1.11A2.46,2.46,0,0,0,175.9,160.34Z" style="fill:#002554"></path>
  <path d="M173.66,160.63v-1.06h-1.51v.63A5.14,5.14,0,0,0,173.66,160.63Z" style="fill:#002554"></path>
  <path d="M128.1,164.4h59.69c1.82,0,2.93-3.52,2.93-3.52s-2.88,1.73-5.08.34-4.6-5.65-4.6-5.65-2.4,4.26-4.61,5.65-5.08-.34-5.08-.34a8.68,8.68,0,0,0,1.17,2.41h-1.28a13,13,0,0,1-.52-1.27,19.34,19.34,0,0,1-.71-2.45h-.34v3.72h-1v-3.72h-1.49v3.72h-1v-3.72h-1.5v3.72h-1v-3.72H162.2v3.72h-1v-3.72H159.7v3.72h-1v-3.72h-1.5v3.72h-1v-3.72h-1.49v3.72h-1v-3.72h-1.49v3.72h-1v-3.72h-1.5v3.72h-1v-3.72h-1.49v3.72h-1v-3.72h-.35a19.18,19.18,0,0,1-.7,2.45c-.14.37-.31.93-.48,1.27h-1.28a7.73,7.73,0,0,0,1.13-2.41s-2.88,1.73-5.08.34-4.61-5.65-4.61-5.65-2.4,4.26-4.6,5.65-5.08-.34-5.08-.34S126.28,164.4,128.1,164.4Z" style="fill:#002554"></path>
  <path d="M144.83,155.13l3.87-1.88h18.49l3.87,1.88c3-.47,4-3.88,4-3.88-2,2.16-6.65,1.44-5.87-.7a5,5,0,0,0,.34-2.9,4.12,4.12,0,0,1-3.47,2.18,3.62,3.62,0,0,1-2.1-.69v-2l.53-.37v-1.89h-1.65v.89H159v-.44h-2.08v.44H153v-.89h-1.63v1.89l.53.37v2a3.62,3.62,0,0,1-2.1.69,4.12,4.12,0,0,1-3.47-2.18,5,5,0,0,0,.34,2.9c.78,2.14-3.81,2.86-5.86.7C140.8,151.25,141.86,154.66,144.83,155.13Z" style="fill:#002554"></path>
  <path d="M128.16,165.58v13h13.42v-13Zm4.67,4.72h-2.1v-2.1h2.1Zm3.09,0h-2.1v-2.1h2.1Zm3.1,0h-2.1v-2.1H139Z" style="fill:#002554"></path>
  <path d="M174.31,165.58v13h13.42v-13ZM179,170.3h-2.1v-2.1H179Zm3.1,0H180v-2.1h2.1Zm3.1,0h-2.11v-2.1h2.11Z" style="fill:#002554"></path>
  <path d="M158.93,165.54v-.68h-2v.67H143.36l0,9.18h29.19l0-9.18Zm-5.56,1.11H157v.79h-3.58Zm-8.14,7.19h-.78v-5.68h.78Zm5.87,0H146v-4.95l1.06-.7h3.1l1,.7Zm0-6.38H146v-.79h5.14Zm1.49,6.4h-.78v-5.67h.78Zm0-6.4h-.78v-.79h.78Zm7.59,6.4h-.35v-3.53h-3.69v3.53h-.35v-3.79h4.39Zm2.45,0h-2.1v-4.19H155.4v4.19h-2.08v-5l1.05-.69h7.1l1.16.69Zm0-6.4h-3.7v-.8h3.7Zm1.5,6.38h-.81v-5.65h.81Zm0-6.39h-.81v-.81h.81Zm5.84,6.39h-5.14v-5l1-.65h3.07l1.06.68Zm0-6.38h-5.14v-.79H170Zm1.5,6.4h-.8v-5.67h.8Z" style="fill:#002554"></path>
  <path d="M123.55,145.54l-.49-.16-.64,1.9.48.16.33-.64,3,2-3.65-.1.16-.78-.49-.17L121.5,150l.49.17.12-.27a.41.41,0,0,1,.61-.15l2.53,1.86-3.57-.27.15-.71-.49-.16-.76,2.24.49.17.1-.22a.66.66,0,0,1,.65-.38l5,.29.16-.45-3.52-2.51,4.34.07.16-.46-4.53-3Z" style="fill:#fff"></path>
  <path d="M129.38,141.45,127,140l.28-.65-.44-.26-1.1,1.8.44.26.23-.28a.55.55,0,0,1,.7-.11l1.8,1.1a2.58,2.58,0,0,1,1.12,1.08,1,1,0,0,1-.14,1c-.3.49-.82,1-2.18.12l-.57-.35-1.76-1.09.34-.75-.43-.27L124,143.7l.43.27.12-.16a.55.55,0,0,1,.7-.13l1.39.84.78.48a2.82,2.82,0,0,0,1.45.48,2.12,2.12,0,0,0,1.86-2.54A2.85,2.85,0,0,0,129.38,141.45Z" style="fill:#fff"></path>
  <path d="M135.27,137.31l-1.54-1.41-.31-.28-1.52-1.44.44-.6-.38-.35L130.3,135l.37.35.21-.17a.53.53,0,0,1,.71,0l1.09,1L131,138c-.57-.53-1-.95-1.41-1.34l.43-.6-.37-.35-1.67,1.8.38.34.21-.17a.53.53,0,0,1,.71,0l1.19,1.09.3.29,1.18,1.1a.54.54,0,0,1,.07.71l-.16.22.37.35,1.67-1.79-.38-.35-.57.48-1.53-1.4,1.65-1.78,1.17,1.1a.54.54,0,0,1,.06.71l-.16.22.38.35,1.66-1.8-.37-.34Z" style="fill:#fff"></path>
  <path d="M139.94,133.17l-4.12-3-.51.37,1.68,5.23-.5.5.3.41,1.63-1.19-.3-.41-.67.36-.39-1.21,1.4-1,1,.76-.56.52.3.41,1.92-1.39-.3-.41-.18.1A.69.69,0,0,1,139.94,133.17Zm-2-.3-1.11.8-.69-2.12Z" style="fill:#fff"></path>
  <path d="M144.41,126.06l-.22-.46-1.91.91.22.46.41-.14a.49.49,0,0,1,.58.25l1.25,2.66-4.2-2.42-1.24.59.22.46.09,0a.67.67,0,0,1,.78.37l1.7,3.61-.57.38.21.46,1.92-.9-.22-.46-.81.25L141,128.72l4.65,2.65.38-.18-2.23-4.74Z" style="fill:#fff"></path>
  <path d="M159.77,123.68l.38.06a.55.55,0,0,1,.45.55l-.09,2.88-2.64-4.06-1.38,0v.51l.1,0a.67.67,0,0,1,.52.68l-.12,4-.69.09v.5l2.12.07v-.51l-.84-.14.11-3.7,2.95,4.47.41,0,.16-5.24.69-.09v-.5l-2.11-.07Z" style="fill:#fff"></path>
  <path d="M163.67,124.05l.43.14a.33.33,0,0,1,.23.37c-.11.64-.22,1.25-.31,1.77l-.08.41c-.09.51-.2,1.1-.32,1.71a.41.41,0,0,1-.43.32l-.39,0-.09.5,2.41.44.09-.5-.37-.12a.39.39,0,0,1-.28-.45c.11-.63.21-1.23.3-1.71l.08-.41c.1-.53.21-1.14.33-1.76a.35.35,0,0,1,.36-.27l.45,0,.09-.51-2.41-.44Z" style="fill:#fff"></path>
  <path d="M172.84,126.57l.16-.48-1.92-.66-.17.52.61.29-2.31,3.08,0-3.87.72.18.18-.53-2.25-.77-.16.49.19.09a.68.68,0,0,1,.39.6l.05,5.17.45.16,3.31-4.41Z" style="fill:#fff"></path>
  <path d="M174.86,132.94l-1.24-.69c.31-.58.63-1.17,1-1.82l.64.36a.33.33,0,0,1,.15.42l-.18.46.47.26,1.05-1.88-.47-.26-.31.4a.33.33,0,0,1-.43.1l-.64-.36c.27-.48.61-1.09,1-1.69l1.11.61a.54.54,0,0,1,.24.65l-.21.59.56.31.75-1.49-3.65-2-.25.45.22.16a.53.53,0,0,1,.16.69c-.28.52-.55,1-.78,1.42l-.2.36-.79,1.41a.52.52,0,0,1-.67.23l-.26-.1-.25.45,3.8,2.1.86-1.42-.55-.31-.39.49A.55.55,0,0,1,174.86,132.94Z" style="fill:#fff"></path>
  <path d="M182.59,134.1a1.36,1.36,0,0,0,.3-1.24,2.55,2.55,0,0,0-.9-1.26l-1.82-1.47-.32.4.19.2a.55.55,0,0,1,0,.71l-1,1.26-.26.32c-.36.46-.84,1-1.33,1.62l-.63-.39-.32.39,1.91,1.54.32-.4-.52-.53c.4-.52.82-1,1.24-1.56l.24.19c.49.39.61.63.33,1.21l-.59,1.24c-.2.41-.11.7.33,1a2,2,0,0,0,.54.33l.06,0,.31-.38-.2-.2a.56.56,0,0,1-.11-.59l.35-.8a1.5,1.5,0,0,0,.09-1.26A1.46,1.46,0,0,0,182.59,134.1Zm-2.35-.52-.41-.33c.46-.57.88-1.09,1.31-1.6l.47.38a1.19,1.19,0,0,1,.49.73,1,1,0,0,1-.27.74A1,1,0,0,1,180.24,133.58Z" style="fill:#fff"></path>
  <path d="M184.85,137.72l-.12-.33c-.22-.6-.17-1,.17-1.28a.76.76,0,0,1,.66-.22,1.11,1.11,0,0,1,.64.39h0a.66.66,0,0,1,0,.85l-.35.45.44.49.95-.78v0a2.22,2.22,0,0,0-.57-1.33,2.14,2.14,0,0,0-1.23-.72,1.52,1.52,0,0,0-1.27.4,1.9,1.9,0,0,0-.35,2.26l.1.31c.27.74.24,1.05-.1,1.36a.83.83,0,0,1-.71.22,1.61,1.61,0,0,1-.91-.68.66.66,0,0,1,0-.79l.4-.49-.44-.49-1,.84v.05a3.11,3.11,0,0,0,.74,1.51,2.19,2.19,0,0,0,1.29.76,1,1,0,0,0,.24,0,1.55,1.55,0,0,0,1.06-.42C185.15,139.49,185.24,138.82,184.85,137.72Z" style="fill:#fff"></path>
  <path d="M187.16,141.79l.34-.23,1.48-1a.35.35,0,0,1,.44.06l.3.34.42-.29-1.39-2-.42.29.21.4a.35.35,0,0,1-.11.44l-1.47,1-.34.23-1.43,1a.41.41,0,0,1-.53-.07l-.26-.29-.42.29,1.39,2,.42-.29-.18-.34a.41.41,0,0,1,.12-.52Z" style="fill:#fff"></path>
  <path d="M189.59,146l.37-.19,1.88-.92.27.54a.55.55,0,0,1-.17.68l-.51.37.29.57,1.46-.82-2.05-4.09-1.53.69.28.57.61-.19a.54.54,0,0,1,.64.27l.27.54-1.86,1-.37.18-1.87.93-.45-.7-.46.23,1.17,2.34.46-.23-.29-.78Z" style="fill:#fff"></path>
  <path d="M194.72,150.77l-.48.15.1.68-2.44-.32,1.87-1.6.29.66.49-.14-.71-2.35-.49.15.05.29a.69.69,0,0,1-.21.62l-1.82,1.63a1.86,1.86,0,0,1-.77.44l-.85.25a.34.34,0,0,1-.41-.19l-.21-.49-.49.15.76,2.5.49-.15-.15-.82,1.6-.49,3.16.44.32.67.49-.15Z" style="fill:#fff"></path>
  <path d="M154.34,126.68l-.46-2.77.68-.21-.09-.5-2.08.34.09.5h.36a.54.54,0,0,1,.54.46l.35,2.08a2.72,2.72,0,0,1-.08,1.56,1.09,1.09,0,0,1-.88.57c-.57.09-1.25,0-1.51-1.58l-.11-.65c-.1-.57-.22-1.31-.33-2l.8-.23-.09-.51-2.42.4.09.51h.19a.55.55,0,0,1,.56.44c.1.59.2,1.15.27,1.6l.15.9a2.86,2.86,0,0,0,.59,1.41,1.84,1.84,0,0,0,1.81.55,1.81,1.81,0,0,0,1.32-.8A2.83,2.83,0,0,0,154.34,126.68Z" style="fill:#fff"></path>
  <path d="M227.76,141.43a5.2,5.2,0,0,0,2.53,2.6c1.76.89,3.23,1,3.86.67s2.43-1.5,3.7-2.21,2.24-1,2.24-1.77-.64-3.26-1.9-3.37a5.26,5.26,0,0,0-3.29,1.23,18.08,18.08,0,0,1-4.71,2.1c-1.47.34-2.08.18-2.2.29A.46.46,0,0,0,227.76,141.43Z" style="fill:#c00d1e"></path>
  <path d="M251.65,133.14a12.37,12.37,0,0,1,1.72,4.16,45.55,45.55,0,0,1-.09,4.57c.05.09.44.32,1.19,0s4-1.52,3.56-4.73a4.54,4.54,0,0,0-4.11-4A11,11,0,0,0,251.65,133.14Z" style="fill:#c00d1e"></path>
  <path d="M221.93,167.3c.59.12,3.78-1.54,4.18-1.75s2.08-.84,1.3-2.46-1.7-3.28-2.08-3.32-.28,1.07-1,2.11a6.76,6.76,0,0,1-1.95,2c-.39.21-1.26.55-1.2,1.06S221.35,167.18,221.93,167.3Z" style="fill:#c00d1e"></path>
  <path d="M254.31,155.38c0-.37-.32-.41-.91-1s-.79-1-1.09-1.29-.38.25-.38.32,0,0,.06,1.72a37.94,37.94,0,0,1-.45,5.91c-.17.67-.79,1.36-1.25,1a18,18,0,0,1-2.68-5,44.23,44.23,0,0,1-1.87-9.3c-.11-1.43.86-1.38,1.34-1.61a11.23,11.23,0,0,0,2.69-1.49c.45-.53.62-.94.22-2s-1.49-.55-1.88-.3-1.74.49-2.2.09-.42-.61-.39-4.71a96.05,96.05,0,0,1,1-9.89c.15-1.77.25-2.1-.46-2.72a10.79,10.79,0,0,0-3.18-1.53,4,4,0,0,0-2.45,0,.74.74,0,0,0-.62,1,31,31,0,0,1,1.1,4.8c.48,3,.74,11.19.73,12.52a3,3,0,0,1-.53,2c-.32.51-9.57,4.53-14.26,6.6s-6,2.43-7.93,2.82a17.11,17.11,0,0,1-2.57.34c-.48.08-.41,1.11-.41,1.11a6.57,6.57,0,0,0,.85.76c.6.48,2.32,1,3,1.42a7.76,7.76,0,0,0,1.85,1.12c.31,0,.86-.89,2.5-2a18.49,18.49,0,0,1,5.1-2.39c1-.18,1.19.07,1.26.37a25.49,25.49,0,0,1-.57,2.84,8.76,8.76,0,0,0,.66,4.92c.25.43,1.08.25,1.2.23a5.24,5.24,0,0,0,1.53-1.13,19,19,0,0,0,2.1-3.31c.36-.48,1.51-.77,1.84-.89s.8-.14.93.16a9.9,9.9,0,0,1-.11,3.84c-.39,1.4-3.21,3.24-9.51,7.28a24.86,24.86,0,0,1-11.95,4.2,1.22,1.22,0,0,1-.87-.29c-.09,0-.27.29-.41.54s-.19,1.18.9,2.37a5,5,0,0,0,3.46,1.65c.9,0,7.19-2.55,11-4.82s11.16-9.33,11.62-9.72a2.4,2.4,0,0,1,1.17-.61,24.86,24.86,0,0,1,3.06,4.22c1.24,2.11,3.6,7.35,3.79,7.58s1,.16,1.29.14a1.8,1.8,0,0,0,1.05-.62,12.18,12.18,0,0,0,1.29-2.34,3.69,3.69,0,0,0,.34-1.31c0-.37-.22-2.46-.29-6.07S254.34,155.75,254.31,155.38Zm-17.18-.85c-.3.33-.66.53-2.36.18s-2.78-1.68-2.62-2.06.45-.78,1.45-1.24a9.41,9.41,0,0,1,2.86-.83c.77-.05.89,0,1.11.66A5.15,5.15,0,0,1,237.13,154.53Zm5.12,0c-.2.39-1-.22-1.42-.8a4.18,4.18,0,0,1-1.06-2.21,3.71,3.71,0,0,1,.26-2.66,1.25,1.25,0,0,1,1.44-.36,4.22,4.22,0,0,1,.92,2.79A8.89,8.89,0,0,1,242.25,154.5Z" style="fill:#c00d1e"></path>
  <path d="M323.26,151.93a5.25,5.25,0,0,0,.92,1.47,1.46,1.46,0,0,0,1.34.42,4.78,4.78,0,0,0,1.92-.9,10.76,10.76,0,0,1,2.55-1.35c.51-.12.74-.17.88-.07a2.76,2.76,0,0,1,.09,1.56,13.78,13.78,0,0,1-4.07,4.52c-2.11,1.52-2.82,2.51-2.25,3.45a2.19,2.19,0,0,0,3.17.46,41.43,41.43,0,0,0,4.71-5c.28-.53.55-1.24,1.22-1.06a7.81,7.81,0,0,1,2.68,1.1,2.25,2.25,0,0,1,.47,1.61c0,.51.92,1.59,2.8,1.56s2.8-.6,2.92-1.07a3.88,3.88,0,0,0-.67-3.18,4.52,4.52,0,0,0-3-1.83c-.92,0-3.22.07-3.82-.53a1.49,1.49,0,0,1-.29-2.07c.52-.83,1.38-1.28,3.26-2.32s2.34-1.58,2.41-2a1.71,1.71,0,0,0-1.17-1.7,2.76,2.76,0,0,0-2.48-.09c-.41.31-.58.87-.83.75a6,6,0,0,1-.44-2.39c0-.48,1.25-2,1.38-2.45s.07-.83-.55-1.43-.91-.85-1.31-.87-.84.07-1.08-.21-1-1-1.38-1.05-1.08.22-1.1.61a7.77,7.77,0,0,1-.13,1.59c-.14.66-.3.87-.16,1.13a5.61,5.61,0,0,1,1,2.23c.16,1.12.21,3.48-.37,4.52a5,5,0,0,1-1.45,1.81,7,7,0,0,1-2.3.67,6.09,6.09,0,0,1-2.34.16,2,2,0,0,0-1.9.3C323.31,150.87,323.08,151.41,323.26,151.93Z" style="fill:#c00d1e"></path>
  <path d="M396.53,135.25c-.53-1.37-1.32-2.78-1.93-2.82a3,3,0,0,0-1.68.11c-.92.3-2.73,1.25-2.67-.13s.65-3.19.4-4a3.8,3.8,0,0,0-1.61-1.9c-.65-.42-1.11-1-1.48-.6a15.24,15.24,0,0,0-1.88,3.44c-.44,1.18-.85,2.58-1.68,2.78s-3-1.33-3.51-1.21-1.63.32-1.4,1.17.81,2.18.43,2.68-1.78,1.38-1.86,2.21.53,2.14,1.8,1.65,2.06.31,1.31,1a3.68,3.68,0,0,1-2.94,1.43c-1.7,0-3.61-.92-3.1.62s1.1,2.51.53,3.38-1,1.15-1.41,1.26-.75.37-.29,1a2.18,2.18,0,0,0,1.51.94c.55.14,1.31.36,1,1s-.48,1.15-.76,1.27a7.21,7.21,0,0,0-2.89.61,24.61,24.61,0,0,1-7.4,2.6c-4.34.47-4.8.76-5.74.39-.76-.3-.8-.5-1.08-.5a1,1,0,0,0-.8.69c0,.32-.74,2.41.71,3.51a6.23,6.23,0,0,0,5.21,1.42c1.86-.5,16-8.54,17.28-8.79s2.46.6,2.23,1.06a4.26,4.26,0,0,1-2.49,2.09c-1.62.59-2.89.68-3.12.93a22.44,22.44,0,0,0-.76,2.46c-.35.93-.75,1.18-.75,2a17.6,17.6,0,0,1,0,1.77,23.61,23.61,0,0,1-4.29,2.12c-2.53,1.05-3.06,1.17-3.89,1.21s-1.63-.16-1.85.16a1.69,1.69,0,0,0,.39,1.91,2.45,2.45,0,0,0,2,.92c.66-.11,2.13-1.06,3.93-1.74a20,20,0,0,1,2.84-1.08,1.84,1.84,0,0,1,1,2.08,3,3,0,0,1-2.12,2.47c-1.36.45-2.92.11-3.15.29s-.75,1.29.71,2.5a5.77,5.77,0,0,0,3.18,1.38c.87.19,1.51.94,2.31.86a4.4,4.4,0,0,0,3-3.25,16.59,16.59,0,0,0,.65-4.08c0-1.11,0-3.63,1.46-3.82a5.16,5.16,0,0,1,2.46,0c.48.16,2.07-.06,2.35-.91s0-2.1-.67-2.17-2.11.85-3.15,1-2.52.21-2.8-1a6.51,6.51,0,0,1-.14-2.91c.17-.39,1.72-.69,3.4-1.59s5.2-3.14,5.93-5.09.12-2.71-.35-2.86-2.93-.38-2.89-1.49.73-1.86,2.59-2.78a11.18,11.18,0,0,0,3.34-2.31,2,2,0,0,1,1.61-1c.89,0,2.45.39,2.86-.88A4.61,4.61,0,0,0,396.53,135.25Zm-11.12,6.07c-.53.32-1.34.8-2,.48s-.85-.75-.67-1.1a2.57,2.57,0,0,1,2.39-1.08C386,139.75,385.94,141,385.41,141.32Zm5.24-3.22a1.34,1.34,0,0,1-1.27.23,1.11,1.11,0,0,1-.73-.66c0-.1-.07-.37.45-.49a2.5,2.5,0,0,1,1.45.07C390.8,137.39,391,137.88,390.65,138.1Z" style="fill:#c00d1e"></path>
  <path d="M362.48,146.33c0-.11.28-.33.69-.32a2.68,2.68,0,0,0,1.91-2.76c0-1.89-.39-4.09-.25-4.46s.43-.8,1.47-.59,1.76.25,2.08-.37.19-.92.63-1.08,1.15-.25,2.15,1.35a6.93,6.93,0,0,1,1,3.8,2.23,2.23,0,0,1-1.29,1.9c-1.17.74-2.82,1.17-3.16,1.79s-.17,1.29-.39,1.61-1.59,2.05-2.51,2.23a1.93,1.93,0,0,1-2-1.52A4.42,4.42,0,0,1,362.48,146.33Z" style="fill:#c00d1e"></path>
  <path d="M301.69,164.15c.11.6,1.22,2.19,1.13,2.76a3.78,3.78,0,0,1-1.27,1.84,2.72,2.72,0,0,0-.89,1.1c-.07.21.32.34,1,.48s2.85,1.27,3.52,1.13,2.41-1.68,2.43-2.55-.23-.72-1-1.86-1.25-2.92-2.19-3.68-1.46-1.12-1.95-1.12-.59.11-.64.23A4.56,4.56,0,0,0,301.69,164.15Z" style="fill:#c00d1e"></path>
  <path d="M276.19,153.93c-.6,1.66-.41,5.7-1.05,8.13a36.39,36.39,0,0,1-2.05,6.2,3.1,3.1,0,0,0-.78,2.49c.25.92,1.84,3.67,3.51,3.83s2.17-1.42,2.56-3.51,1-7.45,2.16-11.65,1.56-6.52,2.55-7.69,1.85-2.07,1.81-2.83-.39-1-.46-1-.44.54-1,.51-.85-.55-1.24-1.36a9.19,9.19,0,0,0-1.46-2.41c-.71-.8-1.18-1-1.54-1a1.1,1.1,0,0,0-.81.42c-.34.42-.53,2.73-.71,4.84A19.73,19.73,0,0,1,276.19,153.93Z" style="fill:#c00d1e"></path>
  <path d="M278.14,141.64a27,27,0,0,1,.05-5.53c.25-1.61.88-2.48.8-4.21a17.31,17.31,0,0,1-.06-3.42c.14-.41.64-1.27,1.17-1.19s1.38,1.91,2.06,3.53c.77,1.86,1.08,3.82.56,5.08s-1.75,2.25-2.41,3.4-.65,1.7-1.17,2S278.29,141.85,278.14,141.64Z" style="fill:#c00d1e"></path>
  <path d="M307.37,154.51a9.75,9.75,0,0,0-3.47-.49c-.86,0-.69,1.2-.76,1.88s-.69,1.45-2.05,1.94-1-1-.61-1.56,1.26-1.54,2.71-3.55,1.28-3.12.85-3.88-.9-2.33-.63-2.77.53-.33,1.95-1.36,1.38-1.65.81-3-3.44-1.52-4-2.07-.32-1.86.22-3.14,4.16-3.75,5.34-5.27,1.37-2.73,1.17-3.56a3.18,3.18,0,0,0-1.75-2,1.66,1.66,0,0,0-2.09.76c-.1.46,0,.72-.18,2.28a3.07,3.07,0,0,1-2.12,2.87c-1.38.59-2.41-1.95-2.8-2.32s-.53.52-.57,1.22.38,3.7-.16,3.9-1.68-2-2.37-2.39c-.23-.15-.62.09-1,.55s-.35,1.24-.41,2.48-.12,1.59-1.41,3-6.7,3-6.91,3.1a.31.31,0,0,0-.21.3c0,.14.12.53.79,1.22a5.19,5.19,0,0,0,2.63,1.3c.81.12,1.39.16,1.78,1s.2,3.18.15,4.3-1,2.14-2.31,3.2a4.24,4.24,0,0,0-1.77,3.33c0,1,2.36,1.9,3.46,1.63a6.12,6.12,0,0,0,2.49-1.57.91.91,0,0,1,.94-.29,2.89,2.89,0,0,1,.9,1.88c.15,1.08-1.55,2.34-2.26,2.71a3.25,3.25,0,0,1-1.95.16.5.5,0,0,0-.62.37c-.07.2.23.75.67,1.1s2.15,0,2.38.19a2.27,2.27,0,0,1,.67,1.92c0,1.2-2.22,3-3,4.09s.68,1,1.46.67a14.33,14.33,0,0,0,3.89-3.1,13.53,13.53,0,0,0,2-4.51,11.48,11.48,0,0,0,2.69-.06,8.84,8.84,0,0,0,4.13-2.12,10.16,10.16,0,0,0,2.72-2.89C309,155.51,308.54,154.94,307.37,154.51Zm-13.74-12.39a2.15,2.15,0,0,1,1.74-.76c.9-.08,1.54,0,1.84.76s0,1.15-1.42,1.31S293.33,142.54,293.63,142.12Zm1.28,11.17c-1.31.06-1.37-.37-1.46-.6a1.34,1.34,0,0,1,.91-1.26,2.14,2.14,0,0,1,1.64,0,8.64,8.64,0,0,1,1.1.8A3.37,3.37,0,0,1,294.91,153.29Zm3.06-4.12a2.17,2.17,0,0,1-2,.28.75.75,0,0,1-.44-.78,1.64,1.64,0,0,1,2.16-1C298.43,148.12,298.41,148.83,298,149.17Z" style="fill:#c00d1e"></path>
  <path d="M226.78,188.58l1.47.22-2,7.45L224,188.79l1.62-.21v-.86H221v.86l.64.08a.8.8,0,0,1,.66,1l-2,6.49-1.91-7.41,1.48-.19v-.86h-4.6v.86l.43,0a1.4,1.4,0,0,1,1.18,1l2.69,9.72h.82l2.58-8.59,2.76,8.59h.83l2.51-9.69a1.39,1.39,0,0,1,1.14-1l.47-.07v-.86h-3.87Z" style="fill:#115740"></path>
  <path d="M239.45,188.58l.8.11a1,1,0,0,1,.86,1l0,4.28c0,2.82-.81,4-2.7,4s-2.6-1.15-2.6-3.73v-1.34c0-1.18,0-2.59,0-4.13l1.65-.2v-.86h-4.77v.86l.47.06a1,1,0,0,1,.89,1c0,1.19,0,2.28,0,3.3v1.84c0,3,1.44,4.62,4,4.62,1.81,0,4-.87,4-5l0-5.6,1.41-.2v-.86h-4.07Z" style="fill:#115740"></path>
  <path d="M252.4,188.58l.62.07a1,1,0,0,1,.88,1c0,1,0,2,0,3.24h-5.08c0-1.15,0-2.64,0-4.11l1.48-.18v-.86h-4.75v.86l.62.07a1,1,0,0,1,.88,1c0,1.25,0,2.46,0,3.43v.83c0,1,0,2.3,0,3.55a1,1,0,0,1-.88,1l-.62.08v.86h4.75v-.86l-1.49-.18c0-1.4,0-3,0-4.5h5.08c0,1.25,0,2.48,0,3.62a1,1,0,0,1-.88,1l-.62.08v.86h4.75v-.86l-1.49-.18c0-1.54,0-3.16,0-4.43v-.83c0-1.28,0-2.79,0-4.31l1.49-.18v-.86H252.4Z" style="fill:#115740"></path>
  <path d="M265.25,187.78l0-.06h-1.14l-3.21,9.79a1.35,1.35,0,0,1-1.07.91l-.57.09v.86h3.9v-.86l-1.56-.22.85-2.65h3.64l.85,2.67-1.57.2v.86h4.59v-.86l-.4,0a1.34,1.34,0,0,1-1.11-.92Zm.51,6.9h-3l1.52-4.67Z" style="fill:#115740"></path>
  <path d="M282.86,187.72v.86h-.07l-1.31.2v10.58h-.7l-6.35-9.06v8l1.71.24v.86H272v-.86l.7-.11a.79.79,0,0,0,.68-.79V190a1.41,1.41,0,0,0-1.25-1.39h-.05v-.86h2.64l0,0,5.7,8.19v-6.27a1,1,0,0,0-.87-1l-.84-.11v-.86Z" style="fill:#115740"></path>
  <path d="M314.83,187.72v.86h-.07l-1.31.2,0,10.58h-.69l-6.36-9.06v8l1.71.24v.86H304v-.86l.69-.11a.79.79,0,0,0,.69-.79V190a1.41,1.41,0,0,0-1.25-1.39h-.06v-.86h2.65l0,0,5.7,8.19v-6.27a1,1,0,0,0-.87-1l-.84-.11v-.86Z" style="fill:#115740"></path>
  <path d="M297.84,188.58l.8.11a1,1,0,0,1,.86,1V194c0,2.82-.8,4-2.69,4s-2.61-1.15-2.61-3.73v-1.34c0-1.18,0-2.59,0-4.13l1.65-.2v-.86h-4.77v.86l.47.06a1,1,0,0,1,.88,1c0,1.19,0,2.28,0,3.3v1.84c0,3,1.44,4.62,4.05,4.62,1.81,0,4-.87,4-5v-5.61l1.41-.19v-.86h-4.07Z" style="fill:#115740"></path>
  <path d="M316.92,188.58l1,.12a.59.59,0,0,1,.53.58c0,1.38,0,2.73,0,3.79v.83c0,1.09,0,2.42,0,3.73a.79.79,0,0,1-.7.78l-.8.1v.86h4.76v-.86l-.8-.1a.79.79,0,0,1-.7-.78c0-1.35,0-2.71,0-3.73v-.83c0-1.13,0-2.45,0-3.79a.59.59,0,0,1,.53-.58l1-.12v-.86h-4.76Z" style="fill:#115740"></path>
  <path d="M368.52,188.58l1,.12a.59.59,0,0,1,.53.58c0,1.38,0,2.73,0,3.79v.83c0,1.09,0,2.42,0,3.73a.79.79,0,0,1-.7.78l-.8.1v.86h4.76v-.86l-.8-.1a.79.79,0,0,1-.7-.78c0-1.35,0-2.71,0-3.73v-.83c0-1.13,0-2.45,0-3.79a.59.59,0,0,1,.53-.58l1-.12v-.86h-4.76Z" style="fill:#115740"></path>
  <path d="M330.59,188.66l1.4.15-2.52,7.78-2.62-7.79,1.53-.14v-.94h-4.61v.86l.39,0a1.41,1.41,0,0,1,1.16.92l3.47,9.76,0,.06h.83l3.17-9.79a1.36,1.36,0,0,1,1.09-.92l.6-.08v-.86h-3.91Z" style="fill:#115740"></path>
  <path d="M343,198.34h-3.13c0-1.4,0-2.93,0-4.49h1.73a.59.59,0,0,1,.59.52l.14,1.07h.91v-4.17h-.91l-.15,1.09a.59.59,0,0,1-.59.52h-1.72c0-1.67,0-2.95,0-4.13h2.8a1,1,0,0,1,1,.84l.22,1.32H345l-.12-3.19h-8.25v.86l.62.07a1,1,0,0,1,.88,1c0,1.25,0,2.46,0,3.43v.83c0,1,0,2.3,0,3.55a1,1,0,0,1-.88,1l-.62.08v.86h8.58l.12-3.2h-1.1L344,197.5A1,1,0,0,1,343,198.34Z" style="fill:#115740"></path>
  <path d="M355.23,195.79a2.75,2.75,0,0,0-1.68-2.14,3,3,0,0,0,2.49-2.86c0-1.92-1.51-3.07-4-3.07h-4.64v.86l.63.07a1,1,0,0,1,.88,1c0,1.25,0,2.46,0,3.43v.83c0,1.09,0,2.42,0,3.73a.81.81,0,0,1-.71.78l-.8.1v.86h4.77v-.86l-1.5-.18c0-1.39,0-2.9,0-4.33h.71c1.26,0,1.84.22,2.15,1.55l.64,2.72c.2.84.68,1.16,1.77,1.16a3.84,3.84,0,0,0,1.23-.18l.06,0v-.84l-.6-.07a1,1,0,0,1-.84-.73Zm-1-5c0,1.43-.9,2.25-2.48,2.25h-1.17c0-1.55,0-3,0-4.36H352C353.51,188.69,354.26,189.38,354.26,190.8Z" style="fill:#115740"></path>
  <path d="M363.44,192.91l-.64-.26c-1.25-.5-1.78-1.12-1.78-2.07,0-1.13.81-1.82,2.11-1.82h.09a1.37,1.37,0,0,1,1.3,1.16l.19,1.09h1.16l.11-2.35,0,0a4.32,4.32,0,0,0-2.72-.92c-2.24,0-3.75,1.3-3.75,3.24,0,1.57.91,2.69,2.86,3.49l.62.26c1.33.55,2,1,2,2.07s-.91,1.95-2.44,1.95a4.31,4.31,0,0,1-.64,0,1.38,1.38,0,0,1-1.11-1.16l-.2-1.22h-1.16l-.1,2.52,0,0a6.18,6.18,0,0,0,3.22.91c2.36,0,3.94-1.34,3.94-3.32C366.46,194.79,365.62,193.8,363.44,192.91Z" style="fill:#115740"></path>
  <path d="M375.5,187.72l-.13,3.11v.1h1.1l.22-1.34a1,1,0,0,1,1-.84h1.47c0,1.54,0,3.05,0,4.32v.83c0,1.09,0,2.41,0,3.71a.8.8,0,0,1-.72.79l-.95.11v.86h5.09v-.86l-1.65-.19c0-1.55,0-3.22,0-4.42v-.83c0-1.28,0-2.79,0-4.32h1.46a1,1,0,0,1,1,.84l.23,1.34h1.1l-.13-3.21Z" style="fill:#115740"></path>
  <path d="M393,187.72v.86l1.42.2-2.19,4.82-2.14-4.84,1.51-.18v-.86h-4.77v.86l.54.06a1.39,1.39,0,0,1,1.1.8l2.14,4.53a4.11,4.11,0,0,1,.38,1.72c0,.7,0,1.43,0,2.11a.59.59,0,0,1-.53.58l-1.14.13v.86h5.09v-.86l-1.66-.19c0-1,0-2.27,0-3.61l2.43-5.25a1.35,1.35,0,0,1,1-.77l.75-.11v-.86Z" style="fill:#115740"></path>
</svg>
